<?xml version="1.0" encoding="iso-8859-1"?>
<!-- Uploaded to: SVG Repo, www.svgrepo.com, Generator: SVG Repo Mixer Tools -->
<svg height="800px" width="800px" version="1.1" id="Capa_1" xmlns="http://www.w3.org/2000/svg" xmlns:xlink="http://www.w3.org/1999/xlink" 
	 viewBox="0 0 54.008 54.008" xml:space="preserve">
<g>
	<g>
		<circle style="fill:#05af99;" cx="27.225" cy="5.077" r="5.077"/>
		<path style="fill:#05af99;" d="M38.317,11.141H15.692c-0.827,0-1.5,0.673-1.5,1.5v15.78c0,0.827,0.673,1.5,1.5,1.5h5.531
			l0.011,4.107v17.205c0,1.531,1.173,2.773,2.41,2.773c1.24,0,2.246-1.242,2.246-2.773V36.019h2.792v15.215
			c0,1.533,1.006,2.774,2.244,2.774c1.238,0,2.291-1.241,2.291-2.774l0.025-17.391v-3.922h5.074c0.826,0,1.5-0.673,1.5-1.5v-15.78
			C39.817,11.814,39.143,11.141,38.317,11.141z M27.606,16.263L27.606,16.263h4.637c0.158,0,0.298,0.059,0.393,0.165
			c0.094,0.106,0.135,0.251,0.116,0.408l-0.103,0.854l-4.461,0.44c-0.166,0.017-0.369,0.026-0.583,0.032L27.606,16.263
			L27.606,16.263z M27.608,21.125c0.247-0.007,0.485-0.017,0.683-0.038l4.005-0.414l-0.175,1.46l-3.903,0.419
			c-0.174,0.019-0.388,0.029-0.609,0.035L27.608,21.125L27.608,21.125z M28.213,20.341c-0.173,0.017-0.385,0.027-0.605,0.034v-1.463
			c0.237-0.007,0.468-0.017,0.657-0.036l4.295-0.425l-0.174,1.458L28.213,20.341z M26.859,26.669h-3.304
			c-0.361,0-0.703-0.304-0.746-0.663l-0.111-0.928l3.753,0.429c0.122,0.014,0.264,0.022,0.408,0.03
			C26.859,25.537,26.859,26.669,26.859,26.669z M26.859,24.786c-0.113-0.008-0.229-0.015-0.322-0.025l-3.93-0.449l-0.17-1.421
			l3.793,0.407c0.183,0.019,0.401,0.03,0.629,0.037C26.859,23.335,26.859,24.786,26.859,24.786z M26.859,22.586
			c-0.2-0.007-0.391-0.017-0.549-0.034l-3.964-0.426l-0.175-1.458l4.053,0.419c0.184,0.02,0.405,0.03,0.635,0.037V22.586z
			 M26.859,20.374c-0.203-0.007-0.397-0.017-0.558-0.033l-4.221-0.437l-0.174-1.453l4.296,0.425c0.189,0.02,0.42,0.029,0.657,0.036
			C26.859,18.912,26.859,20.374,26.859,20.374z M26.859,18.161c-0.213-0.006-0.416-0.016-0.583-0.032l-4.46-0.44l-0.101-0.853
			c-0.019-0.158,0.023-0.303,0.117-0.409c0.095-0.107,0.234-0.165,0.392-0.165h4.635V18.161z M26.859,15.513h-4.635
			c-0.376,0-0.715,0.148-0.953,0.417c-0.238,0.269-0.346,0.622-0.301,0.996l1.095,9.168c0.088,0.743,0.743,1.324,1.49,1.324h3.304
			v1.502h-7.958c-0.159-0.113-0.269-0.29-0.269-0.5V15.177c0-0.345,0.28-0.625,0.625-0.625h7.602
			C26.859,14.552,26.859,15.513,26.859,15.513z M26.859,13.801h-7.602c-0.758,0-1.375,0.617-1.375,1.375v13.245
			c0,0.178,0.036,0.346,0.097,0.5h-2.285c-0.275,0-0.5-0.225-0.5-0.5v-15.78c0-0.275,0.225-0.5,0.5-0.5h11.165
			C26.859,12.141,26.859,13.801,26.859,13.801z M27.606,23.337L27.606,23.337c0.25-0.007,0.491-0.018,0.69-0.039l3.732-0.4
			l-0.176,1.473l-3.418,0.391c-0.226,0.026-0.524,0.039-0.829,0.043L27.606,23.337L27.606,23.337z M27.607,25.553L27.607,25.553
			c0.332-0.003,0.656-0.018,0.916-0.046l3.24-0.37l-0.104,0.87c-0.043,0.358-0.386,0.662-0.746,0.662h-3.305v-1.116H27.607z
			 M35.529,28.921h-7.92v-1.502h3.305c0.747,0,1.401-0.581,1.49-1.322l1.095-9.172c0.045-0.373-0.062-0.727-0.301-0.995
			c-0.238-0.269-0.577-0.417-0.953-0.417h-4.636v-0.961h7.564c0.346,0,0.625,0.28,0.625,0.625v13.244H35.8
			C35.8,28.631,35.688,28.808,35.529,28.921z M38.821,28.421L38.821,28.421c-0.001,0.275-0.227,0.5-0.501,0.5h-1.868
			c0.062-0.154,0.098-0.322,0.098-0.5V15.177c0-0.758-0.617-1.375-1.375-1.375h-7.563v-1.66h10.71c0.275,0,0.5,0.225,0.5,0.5
			L38.821,28.421L38.821,28.421z"/>
	</g>
</g>
</svg>