<svg xmlns="http://www.w3.org/2000/svg" viewBox="0 0 16.571 16.532" id="search-icon">
    <g data-name="Group 11212">
        <g data-name="Group 116">
            <path data-name="Path 74" d="m145.808 191.554 3.546 3.545c.059.059.119.117.177.177a.57.57 0 0 1 .011.83.562.562 0 0 1-.842 0q-1.591-1.581-3.175-3.171l-.553-.549a6.776 6.776 0 0 1-5.584 1.5 6.645 6.645 0 0 1-4.328-2.643 6.865 6.865 0 1 1 10.748.307zm-10.972-4.446a5.722 5.722 0 1 0 5.724-5.715 5.726 5.726 0 0 0-5.724 5.715z" transform="translate(-133.429 -180.016)"/>
        </g>
    </g>
</svg>
