<svg data-name="Group 11235" xmlns="http://www.w3.org/2000/svg" viewBox="0 0 9.826 13.104" id="Sortby-icon">
    <path data-name="Path 75" d="M1037.04 186.073v3.224c0 .093.017.138.117.169a2.179 2.179 0 0 1-.007 4.157c-.083.025-.113.059-.11.148.005.337 0 .673 0 1.01a.548.548 0 1 1-1.093.012v-1.024a.125.125 0 0 0-.1-.145 2.178 2.178 0 0 1 0-4.164c.108-.034.1-.1.1-.172v-6.498a.546.546 0 0 1 1.092.034q.003 1.625.001 3.249zm-.547 6.559a1.09 1.09 0 0 0 .009-2.181 1.09 1.09 0 1 0-.009 2.181z" transform="translate(-1028.851 -182.261)"/>
    <path data-name="Path 76" d="M1032.268 183.964v-1.172a.543.543 0 0 1 1.059-.156.87.87 0 0 1 .032.239v.985a.124.124 0 0 0 .1.142 2.178 2.178 0 0 1 .007 4.161c-.1.03-.108.079-.108.165v6.421a.561.561 0 0 1-.365.584.545.545 0 0 1-.727-.533v-6.477a.143.143 0 0 0-.12-.168 2.18 2.18 0 0 1 .024-4.163.36.36 0 0 0 .098-.028zm-.543 2.123a1.09 1.09 0 1 0 1.083-1.092 1.089 1.089 0 0 0-1.083 1.092z" transform="translate(-1030.63 -182.262)"/>
</svg>
