<svg xmlns="http://www.w3.org/2000/svg" id="facebook" viewBox="0 0 18 18">
    <defs>
        <clipPath id="oz8rx30hna">
            <path data-name="Rectangle 16601" transform="translate(9.613 9.004)" style="fill:none;stroke:#707070" d="M0 0h18v18H0z"/>
        </clipPath>
    </defs>
    <g data-name="Mask Group 147" transform="translate(-9.613 -9.004)" style="clip-path:url(#oz8rx30hna)">
        <g data-name="Group 7">
            <path data-name="Path 5" d="M105.218 3364.815v-8.156h-1.675v-2.359h1.677v-.242c.01-.741 0-1.484.036-2.225a2.788 2.788 0 0 1 2.848-2.729h.006a13.417 13.417 0 0 1 3.034.217c.084.016.166.041.266.064l-.419 2.389a9.249 9.249 0 0 0-.983-.149 3.821 3.821 0 0 0-.961.057.766.766 0 0 0-.667.854v1.575c0 .056.007.11.012.183h2.683l-.187 2.355h-2.5v8.161z" transform="translate(-88.864 -3338.952)" style="fill:#fff"/>
        </g>
    </g>
</svg>
