<svg xmlns="http://www.w3.org/2000/svg" xmlns:xlink="http://www.w3.org/1999/xlink" id="instagram" viewBox="0 0 18 18">
  <defs>
    <clipPath id="clip-path">
      <rect id="Rectangle_16685" data-name="Rectangle 16685" width="18" height="18" transform="translate(9 9.004)" fill="none" stroke="#707070" stroke-width="1"/>
    </clipPath>
  </defs>
  <g id="Mask_Group_206" data-name="Mask Group 206" transform="translate(-9 -9.004)" clip-path="url(#clip-path)">
    <g id="Group_38123" data-name="Group 38123" transform="translate(5661.561 -6198.225)">
      <path id="Path_43218" data-name="Path 43218" d="M-5643.507,6223.166c-1.13,0-2.257,0-3.385,0a3.442,3.442,0,0,1-3.487-3.49q0-3.382,0-6.77a3.445,3.445,0,0,1,3.484-3.494q3.387,0,6.77,0a3.443,3.443,0,0,1,3.5,3.5q0,3.378,0,6.745a3.442,3.442,0,0,1-3.5,3.506C-5641.249,6223.168-5642.379,6223.166-5643.507,6223.166Zm.016-12.614c-1.1,0-2.2,0-3.307,0a2.316,2.316,0,0,0-2.441,2.442q0,3.294,0,6.585a2.869,2.869,0,0,0,.066.665,2.293,2.293,0,0,0,2.342,1.782c2.2.007,4.406.007,6.606,0a2.32,2.32,0,0,0,2.457-2.457q0-3.283,0-6.559a3.159,3.159,0,0,0-.069-.691,2.291,2.291,0,0,0-2.324-1.771C-5641.271,6210.545-5642.383,6210.551-5643.491,6210.551Z" fill="#fff"/>
      <path id="Path_43219" data-name="Path 43219" d="M-5629.956,6226.4a3.442,3.442,0,0,1-3.454,3.437,3.447,3.447,0,0,1-3.424-3.442,3.439,3.439,0,0,1,3.454-3.434A3.442,3.442,0,0,1-5629.956,6226.4Zm-3.451,2.3a2.318,2.318,0,0,0,2.309-2.278,2.316,2.316,0,0,0-2.27-2.318,2.319,2.319,0,0,0-2.323,2.294A2.32,2.32,0,0,0-5633.407,6228.7Z" transform="translate(-10.106 -10.109)" fill="#fff"/>
      <path id="Path_43220" data-name="Path 43220" d="M-5611.142,6218.481a.832.832,0,0,1,.84.855.853.853,0,0,1-.85.854.879.879,0,0,1-.864-.852A.854.854,0,0,1-5611.142,6218.481Z" transform="translate(-28.62 -6.768)" fill="#fff"/>
    </g>
  </g>
</svg>
