<svg xmlns="http://www.w3.org/2000/svg" id="twitter" viewBox="0 0 18 18">
    <defs>
        <clipPath id="bvdkmigj3a">
            <path data-name="Rectangle 16603" transform="translate(9.226 9.004)" style="fill:none;stroke:#707070" d="M0 0h18v18H0z"/>
        </clipPath>
    </defs>
    <g data-name="Mask Group 148" transform="translate(-9.226 -9.004)" style="clip-path:url(#bvdkmigj3a)">
        <g data-name="Group 8">
            <path data-name="Path 6" d="M144.229 3360.612c-.306-.143-.624-.259-.908-.427a3.481 3.481 0 0 1-1.575-2 .307.307 0 0 1 .046-.207 2.217 2.217 0 0 1 .171-.239c-.217-.246-.492-.517-.718-.826a3.513 3.513 0 0 1-.667-1.893c-.031-.476.115-.6.6-.516-.035-.067-.06-.119-.089-.17a3.687 3.687 0 0 1-.021-3.719.323.323 0 0 1 .428-.167.286.286 0 0 1 .043.022.823.823 0 0 1 .212.179 9.6 9.6 0 0 0 5.367 3.138c.221.048.446.079.668.116h.051c.015-.274.016-.547.048-.816a3.635 3.635 0 0 1 3.071-3.136 3.746 3.746 0 0 1 3.134.913.269.269 0 0 0 .214.042 5.586 5.586 0 0 0 1.683-.684.386.386 0 0 1 .466.017.3.3 0 0 1 .06.407c-.142.291-.295.577-.445.864-.023.043-.052.083-.1.16.177-.074.324-.133.466-.193s.311-.116.446.028a.4.4 0 0 1-.006.516q-.471.579-.974 1.133a3.358 3.358 0 0 1-.486.42.36.36 0 0 0-.15.322 9.712 9.712 0 0 1-2.753 6.828 9.229 9.229 0 0 1-5.574 2.811 9.918 9.918 0 0 1-6.776-1.374.822.822 0 0 1-.142-.1.364.364 0 0 1-.132-.4.42.42 0 0 1 .409-.239c.5 0 1 .023 1.492-.021a6.209 6.209 0 0 0 2.376-.735.578.578 0 0 0 .065-.054z" transform="translate(-130.194 -3338.767)" style="fill:#fff"/>
        </g>
    </g>
</svg>
