<svg xmlns="http://www.w3.org/2000/svg" viewBox="0 0 14 14" id="delete-icon">
    <defs>
        <clipPath id="ycctva7dxa">
            <path data-name="Rectangle 517" style="fill:none" d="M0 0h14v14H0z"/>
        </clipPath>
    </defs>
    <g data-name="Mask Group 18" style="clip-path:url(#ycctva7dxa)">
        <g data-name="Group 11223">
            <g data-name="Group 11222">
                <g data-name="Group 11219">
                    <g data-name="Group 11218">
                        <path data-name="Path 5789" d="M1019.641 269.334h9.5c-.053.662-.1 1.311-.159 1.96q-.185 2.246-.373 4.491c-.042.5-.07.994-.14 1.486a1.047 1.047 0 0 1-1.049.917q-3.024.015-6.05 0a1.091 1.091 0 0 1-1.082-1.083c-.158-1.845-.3-3.692-.456-5.539l-.191-2.232zm3.314 6.873-.047-.014q-.146-2.431-.3-4.863c-.019-.318-.031-.636-.072-.951a.347.347 0 0 0-.483-.3c-.212.086-.242.261-.229.464.074 1.189.143 2.379.216 3.568.044.742.083 1.484.152 2.224a.5.5 0 0 0 .245.344.406.406 0 0 0 .364-.087c.099-.085.107-.251.154-.385zm3.989-5.449h.01c0-.123.008-.245 0-.367a.331.331 0 0 0-.331-.33.335.335 0 0 0-.374.282 2.727 2.727 0 0 0-.04.388l-.184 2.932c-.053.871-.11 1.742-.159 2.615a.369.369 0 1 0 .731.049zm-2.187 2.628v-2.4c0-.2.006-.393-.007-.587a.343.343 0 0 0-.35-.341.355.355 0 0 0-.37.345 1.807 1.807 0 0 0-.006.2v5.581c0 .089-.02.2.026.262a.709.709 0 0 0 .334.264.3.3 0 0 0 .352-.264 1.117 1.117 0 0 0 .02-.268c.002-.932 0-1.862.002-2.792z" transform="translate(-1017.391 -264.916)"/>
                    </g>
                </g>
                <g data-name="Group 11221" style="opacity:.5">
                    <g data-name="Group 11220">
                        <path data-name="Path 5790" d="M1022.031 268.23c.01-.176.016-.33.032-.483a1.057 1.057 0 0 1 1.017-.979 81.51 81.51 0 0 1 3.088 0 1.054 1.054 0 0 1 1.01.986c.014.145.019.292.029.474h2.124a.738.738 0 1 1-.01 1.47h-9.408a.738.738 0 1 1 .006-1.47h1.838zm.757-.019h3.665c0-.132.007-.246 0-.36a.343.343 0 0 0-.362-.353q-1.466-.011-2.934 0a.344.344 0 0 0-.364.351c-.014.114-.005.228-.005.362z" transform="translate(-1017.62 -266.033)"/>
                    </g>
                </g>
            </g>
        </g>
    </g>
</svg>
