<svg id="eyeIcon" viewBox="0 0 19 12" fill="none" xmlns="http://www.w3.org/2000/svg">
<path d="M9.49106 0.200105C12.4282 0.22916 14.8265 1.45473 16.8207 3.54929C17.209 3.95605 17.5629 4.39979 17.8931 4.85674C18.4002 5.55669 18.4108 6.42039 17.9036 7.1177C16.1815 9.48696 13.9734 11.1483 11.0309 11.6634C8.3368 12.1336 5.92529 11.4125 3.74092 9.83033C2.72137 9.09076 1.85767 8.19007 1.12602 7.16524C0.616248 6.45209 0.576629 5.5963 1.0732 4.90428C2.82174 2.47163 5.08535 0.815531 8.08852 0.292551C8.33945 0.247649 8.59301 0.221236 8.84922 0.202746C9.06052 0.186899 9.27711 0.200105 9.49106 0.200105ZM9.57294 10.5197C12.6527 10.4458 15.0061 8.8821 16.8365 6.39134C17.0346 6.12193 17.0188 5.83402 16.8207 5.56725C16.6226 5.29784 16.4166 5.02842 16.1974 4.7775C14.5016 2.83349 12.4335 1.56566 9.79745 1.48907C6.49581 1.39134 4.07637 3.02103 2.17462 5.57253C1.96596 5.85251 1.97917 6.15098 2.19047 6.43096C2.40178 6.7083 2.61308 6.98828 2.84287 7.24977C4.60199 9.2466 6.75202 10.451 9.57294 10.5197Z" fill="currentColor" />
<path d="M9.48576 9.21747C7.62628 9.21218 6.30298 7.87304 6.30298 5.99242C6.30034 4.0986 7.63685 2.75682 9.5201 2.7621C11.3901 2.77002 12.7372 4.15407 12.7267 6.06638C12.7187 7.92851 11.3875 9.22539 9.48576 9.21747ZM9.4884 7.92586C10.6162 7.93115 11.4271 7.13875 11.4351 6.0162C11.4456 4.88572 10.6532 4.07219 9.53331 4.05898C8.38698 4.04578 7.56553 4.84874 7.56553 5.98978C7.56553 7.11498 8.36321 7.92058 9.4884 7.92586Z" fill="currentColor" />
</svg>
