<svg data-name="Group 11234" xmlns="http://www.w3.org/2000/svg" viewBox="0 0 10.198 12.076" id="filter-icon">
    <g data-name="Group 122">
        <path data-name="Path 77" d="M942.3 194.29v-4.94a.529.529 0 0 0-.083-.273q-1.816-2.738-3.64-5.472a.578.578 0 0 1-.087-.286c-.011-.318 0-.637 0-.954 0-.048 0-.1.007-.152h10.173a6.941 6.941 0 0 0 0 .7 1.486 1.486 0 0 1-.307 1.031c-1.154 1.7-2.289 3.416-3.425 5.13a.557.557 0 0 0-.087.287q-.008 1.75 0 3.5a.216.216 0 0 1-.137.228c-.758.371-1.512.751-2.266 1.13-.034.022-.076.039-.148.071z" transform="translate(-938.484 -182.214)"/>
    </g>
</svg>
