<svg xmlns="http://www.w3.org/2000/svg" viewBox="0 0 14 14" id="print-icon">
    <defs>
        <clipPath id="pf8vd1l6ua">
            <path data-name="Rectangle 519" style="fill:none" d="M0 0h14v14H0z"/>
        </clipPath>
    </defs>
    <g data-name="Mask Group 19" style="clip-path:url(#pf8vd1l6ua)">
        <g data-name="Group 61571">
            <path data-name="Path 25540" d="M435.74 338.479h-1.2a1.065 1.065 0 0 1-1.213-1.211v-4.056a1.054 1.054 0 0 1 1.2-1.191h1.213v-2.443c0-.372.161-.532.533-.533h7.238c.387 0 .543.158.543.548v2.428c.338 0 .669.021 1 0 1.035-.078 1.461.44 1.429 1.415-.043 1.282-.01 2.567-.011 3.85a1.061 1.061 0 0 1-1.2 1.2h-1.212v2.267a.453.453 0 0 1-.52.52h-7.264c-.37 0-.529-.162-.531-.535v-1.951zm.9-1.667v3.558h6.525v-3.558zm6.532-6.871h-6.535V332h6.535zm-.13 4.648c.2 0 .393.008.588 0a.435.435 0 0 0 .424-.427.43.43 0 0 0-.414-.438 17.669 17.669 0 0 0-1.151 0 .434.434 0 0 0-.425.428.441.441 0 0 0 .44.439c.177.009.357-.001.536-.001z" transform="translate(-432.904 -328.155)"/>
            <path data-name="Path 25541" d="M447.219 352.933h-1.795c-.321 0-.516-.174-.511-.444a.441.441 0 0 1 .5-.43h3.666a.441.441 0 0 1 .5.432c0 .269-.191.44-.514.442-.616.002-1.231 0-1.846 0z" transform="translate(-440.251 -342.747)" style="opacity:.69;fill:#5079e9"/>
            <path data-name="Path 25542" d="M447.257 355.841h1.795c.329 0 .522.161.527.429s-.195.446-.536.446h-3.589c-.343 0-.543-.168-.539-.444s.2-.431.549-.431h1.793z" transform="translate(-440.251 -345.146)" style="opacity:.69;fill:#5079e9"/>
        </g>
    </g>
</svg>
