<svg xmlns="http://www.w3.org/2000/svg" id="users-icon" viewBox="0 0 20 20">
    <defs>
        <clipPath id="700ohaq5ea">
            <path  d="M0 0h20v20H0z"/>
        </clipPath>
    </defs>
    <g data-name="Group 13568" style="clip-path:url(#700ohaq5ea)">
        <g data-name="Group 13567">
            <path data-name="Path 9391" d="M-1619.795 903.688a2.847 2.847 0 0 1 2.844 2.843 2.843 2.843 0 0 1-2.852 2.844 2.828 2.828 0 0 1-1.785-.634 5.112 5.112 0 0 1-1.167.867 4.2 4.2 0 0 0 2.952 1.192 4.267 4.267 0 0 0 3.019-1.251 4.267 4.267 0 0 0 1.251-3.019 4.271 4.271 0 0 0-4.261-4.269 3.639 3.639 0 0 0-.6.05 4.97 4.97 0 0 1 .442 1.384 1.012 1.012 0 0 1 .157-.007z" transform="translate(1633.134 -898.441)" />
            <path data-name="Path 9392" d="M-1617.027 914.2h-1.868a4.768 4.768 0 0 1 .959 1.426h.909a2.134 2.134 0 0 1 2.135 2.135v1.418h1.426v-1.418a3.559 3.559 0 0 0-3.561-3.561z" transform="translate(1632.493 -900.425)" />
            <path data-name="Path 9393" d="M-1627.032 909.179a5.129 5.129 0 0 0 2.31-.559 4.886 4.886 0 0 0 1.151-.834.536.536 0 0 0 .075-.067 4.993 4.993 0 0 0 1.468-3.536 4.584 4.584 0 0 0-.083-.9 4.461 4.461 0 0 0-.459-1.351 4.986 4.986 0 0 0-4.461-2.76 5.012 5.012 0 0 0-5 5 4.957 4.957 0 0 0 1.468 3.536 4.985 4.985 0 0 0 3.531 1.471zm-2.36-7.355a3.3 3.3 0 0 1 2.36-.984 3.363 3.363 0 0 1 2.994 1.868 3.34 3.34 0 0 1 .342 1.476c0 .083 0 .167-.008.25l-.008.008a3.175 3.175 0 0 1-.467 1.468 3.353 3.353 0 0 1-1.276 1.209 3.318 3.318 0 0 1-1.576.392 3.34 3.34 0 0 1-2.36-.976 3.34 3.34 0 0 1-.976-2.36 3.322 3.322 0 0 1 .975-2.351z" transform="translate(1634.676 -897.928)" />
            <path data-name="Path 9394" d="M-1622.336 914.031a4.109 4.109 0 0 0-2.527-.859h-5a4.171 4.171 0 0 0-4.169 4.169v1.668h1.668v-1.668a2.5 2.5 0 0 1 2.5-2.5h5a2.47 2.47 0 0 1 1.643.617 2.5 2.5 0 0 1 .859 1.885v1.668h1.667v-1.668a4.213 4.213 0 0 0-.45-1.885 4.11 4.11 0 0 0-1.191-1.427z" transform="translate(1635.008 -900.254)" />
        </g>
    </g>
</svg>
